<svg id="Layer_1" data-name="Layer 1" xmlns="http://www.w3.org/2000/svg" viewBox="0 0 95.93 8.74"><defs><style>.cls-1{fill:#f9fafb;}</style></defs><path class="cls-1" d="M2,8.27A3.33,3.33,0,0,1,.52,7,3.55,3.55,0,0,1,0,5,5,5,0,0,1,.67,2.45,4.61,4.61,0,0,1,2.53.65,5.69,5.69,0,0,1,5.27,0,5,5,0,0,1,7.33.41,3,3,0,0,1,8.68,1.58L7,3A2,2,0,0,0,5.11,2a2.55,2.55,0,0,0-1.41.38,2.61,2.61,0,0,0-1,1A3.17,3.17,0,0,0,2.4,4.88,1.77,1.77,0,0,0,3,6.25a2.09,2.09,0,0,0,1.5.52,2.64,2.64,0,0,0,2.05-1L7.91,7.18a4,4,0,0,1-1.6,1.19,5.63,5.63,0,0,1-2.08.37A5.09,5.09,0,0,1,2,8.27Z"/><path class="cls-1" d="M16.54,4.83a3.48,3.48,0,0,1-1.72,1.22l1.43,2.52H13.76L12.52,6.34h-1.2l-.45,2.23H8.5L10.18.17h3.58a3.86,3.86,0,0,1,2.5.71,2.37,2.37,0,0,1,.89,2A3.33,3.33,0,0,1,16.54,4.83ZM14.4,2.3a1.62,1.62,0,0,0-1-.26H12.18l-.5,2.46h1.41a1.83,1.83,0,0,0,1.23-.37,1.35,1.35,0,0,0,.43-1.06A.9.9,0,0,0,14.4,2.3Z"/><path class="cls-1" d="M23.42,6.94H19.85l-1,1.63H16.37L21.76.17H24.1l2,8.4H23.76Zm-.36-1.76L22.5,2.46,20.89,5.18Z"/><path class="cls-1" d="M34.56.88a2.4,2.4,0,0,1,.89,2,3.36,3.36,0,0,1-.51,1.85,3.42,3.42,0,0,1-1.45,1.22,5.19,5.19,0,0,1-2.19.43H29.62l-.44,2.2H26.81L28.49.17H32A3.9,3.9,0,0,1,34.56.88ZM32.62,4.13a1.32,1.32,0,0,0,.43-1.06.92.92,0,0,0-.34-.77,1.63,1.63,0,0,0-1-.26H30.48L30,4.5H31.4A1.78,1.78,0,0,0,32.62,4.13Z"/><path class="cls-1" d="M43.28.88a2.37,2.37,0,0,1,.89,2,3.36,3.36,0,0,1-.51,1.85,3.37,3.37,0,0,1-1.45,1.22A5.19,5.19,0,0,1,40,6.37H38.34l-.43,2.2H35.53L37.21.17h3.55A3.9,3.9,0,0,1,43.28.88ZM41.35,4.13a1.34,1.34,0,0,0,.42-1.06.9.9,0,0,0-.34-.77,1.61,1.61,0,0,0-1-.26H39.2L38.71,4.5h1.42A1.8,1.8,0,0,0,41.35,4.13Z"/><path class="cls-1" d="M49.34,5.59l-.58,3H46.38l.6-3L44.84.17h2.39l1.32,3.35L51.24.17h2.41Z"/><path class="cls-1" d="M64.24,4.9a1.71,1.71,0,0,1,.3,1,2.21,2.21,0,0,1-1.07,2,5.14,5.14,0,0,1-2.79.68H56.06L57.74.17H62a3.84,3.84,0,0,1,2.17.51,1.65,1.65,0,0,1,.75,1.46,2,2,0,0,1-.4,1.26,2.55,2.55,0,0,1-1.1.84A1.91,1.91,0,0,1,64.24,4.9ZM61.81,6.6a.85.85,0,0,0,.36-.74.62.62,0,0,0-.26-.54,1.37,1.37,0,0,0-.72-.17h-2.1l-.34,1.7h2.07A1.69,1.69,0,0,0,61.81,6.6ZM59.75,1.88,59.42,3.5h1.71a1.62,1.62,0,0,0,1-.24.84.84,0,0,0,.33-.72q0-.66-1-.66Z"/><path class="cls-1" d="M67,.17h2.38l-1.68,8.4H65.29Z"/><path class="cls-1" d="M77.4,4.83a3.48,3.48,0,0,1-1.72,1.22l1.43,2.52H74.63L73.38,6.34h-1.2l-.44,2.23H69.36L71,.17h3.59a3.85,3.85,0,0,1,2.49.71,2.34,2.34,0,0,1,.89,2A3.27,3.27,0,0,1,77.4,4.83ZM75.26,2.3a1.6,1.6,0,0,0-1-.26H73l-.5,2.46H74a1.82,1.82,0,0,0,1.22-.37,1.32,1.32,0,0,0,.43-1.06A.88.88,0,0,0,75.26,2.3Z"/><path class="cls-1" d="M79.92.17h3.65a5.49,5.49,0,0,1,2.24.42,3.35,3.35,0,0,1,1.46,1.23,3.41,3.41,0,0,1,.51,1.88,4.79,4.79,0,0,1-.67,2.56A4.43,4.43,0,0,1,85.26,8a6,6,0,0,1-2.72.6h-4.3Zm2.69,6.5a3,3,0,0,0,1.49-.36,2.46,2.46,0,0,0,1-1,3.3,3.3,0,0,0,.32-1.46,1.64,1.64,0,0,0-.53-1.31,2.28,2.28,0,0,0-1.55-.47H81.91L81,6.67Z"/><path class="cls-1" d="M89.3,8.48a5,5,0,0,1-1.52-.64l.94-1.78a5.16,5.16,0,0,0,1.35.62,5.12,5.12,0,0,0,1.44.21,2.32,2.32,0,0,0,1.06-.2A.59.59,0,0,0,93,6.14a.5.5,0,0,0-.34-.46,5.08,5.08,0,0,0-1.06-.36,11.55,11.55,0,0,1-1.36-.44,2.49,2.49,0,0,1-.93-.68A1.77,1.77,0,0,1,88.87,3a2.67,2.67,0,0,1,.49-1.58,3.2,3.2,0,0,1,1.41-1A5.59,5.59,0,0,1,92.9,0a6.92,6.92,0,0,1,1.68.19,4.59,4.59,0,0,1,1.35.53l-.87,1.76A4.36,4.36,0,0,0,94,2a4.54,4.54,0,0,0-1.22-.16,2.18,2.18,0,0,0-1.11.23.65.65,0,0,0-.4.58.51.51,0,0,0,.35.48,5.13,5.13,0,0,0,1.08.36A12.37,12.37,0,0,1,94,3.92a2.48,2.48,0,0,1,.91.66,1.72,1.72,0,0,1,.39,1.17,2.57,2.57,0,0,1-.5,1.56,3,3,0,0,1-1.42,1,5.59,5.59,0,0,1-2.13.38A7.57,7.57,0,0,1,89.3,8.48Z"/></svg>