<?xml version="1.0" standalone="no"?>
<!DOCTYPE svg PUBLIC "-//W3C//DTD SVG 20010904//EN"
 "http://www.w3.org/TR/2001/REC-SVG-20010904/DTD/svg10.dtd">
<svg version="1.0" xmlns="http://www.w3.org/2000/svg"
 width="512.000000pt" height="512.000000pt" viewBox="0 0 512.000000 512.000000"
 preserveAspectRatio="xMidYMid meet">
<metadata>
Created by potrace 1.14, written by Peter Selinger 2001-2017
</metadata>
<g transform="translate(0.000000,512.000000) scale(0.100000,-0.100000)"
fill="#000000" stroke="none">
<path d="M2970 4073 c-267 -43 -488 -158 -666 -345 -250 -263 -352 -619 -279
-973 9 -42 15 -78 13 -80 -33 -27 -469 -349 -748 -552 l-175 -128 175 -5 174
-5 -54 -40 -55 -40 532 -3 533 -2 2 -553 3 -552 60 73 60 73 3 -70 c2 -39 6
-71 10 -71 4 0 189 225 411 500 307 381 408 500 424 500 44 0 212 51 292 89
287 134 487 367 581 677 26 82 28 102 28 269 0 176 0 183 -37 323 -62 235
-109 342 -213 479 -171 225 -415 373 -705 428 -75 14 -302 19 -369 8z m412
-122 c207 -54 334 -127 483 -276 128 -128 190 -224 241 -372 45 -132 57 -223
51 -373 -5 -132 -29 -237 -82 -356 -61 -138 -205 -311 -335 -403 -116 -82
-307 -161 -430 -177 -30 -4 -59 -14 -68 -25 -10 -10 -172 -211 -362 -448 -190
-236 -348 -430 -352 -430 -5 -1 -8 224 -8 499 l0 500 -547 2 -547 3 364 269
c201 148 367 270 369 272 2 2 -6 38 -18 81 -44 166 -45 359 -1 522 49 181 181
384 325 500 164 132 302 192 535 235 63 12 307 -3 382 -23z"/>
<path d="M3040 3535 c-143 -32 -270 -119 -353 -242 -157 -232 -128 -541 69
-737 107 -108 253 -169 404 -170 105 0 173 15 270 62 175 85 301 273 317 471
25 328 -226 612 -552 627 -57 2 -114 -2 -155 -11z m222 -106 c258 -54 428
-322 363 -574 -49 -186 -201 -325 -389 -355 -309 -49 -580 220 -536 532 38
267 299 452 562 397z"/>
<path d="M3142 3245 c-266 -73 -296 -422 -47 -541 61 -29 157 -32 231 -7 66
22 145 101 167 167 29 86 32 83 -98 91 l-114 7 79 98 80 98 -33 28 c-72 61
-175 84 -265 59z"/>
<path d="M1831 1698 c-24 -35 -103 -151 -176 -258 -73 -108 -156 -227 -184
-264 -28 -38 -51 -72 -51 -77 0 -4 16 -13 35 -19 19 -6 35 -14 35 -17 0 -3 -9
-20 -20 -39 -12 -18 -17 -34 -13 -37 18 -11 472 -197 480 -197 7 0 288 614
321 700 1 4 -11 13 -28 20 -34 14 -36 20 -14 61 8 17 14 32 12 33 -3 2 -315
141 -343 152 -6 3 -30 -24 -54 -58z m254 -119 c17 -7 32 -14 33 -15 5 -3 -237
-546 -248 -557 -4 -5 -80 22 -169 58 l-161 68 17 27 c10 14 92 133 182 262
l163 236 77 -33 c42 -18 90 -39 106 -46z"/>
</g>
</svg>
